# xmcd
# 
# Track frame offsets:
#     150
#     19613
#     37907
#     58838
#     80408
#     97874
#     119585
#     137689
#     156804
#     175807
#     189268
#     208233
# 
# Disc length: 3032
# 
# Revision: 8
# Processed by: cddbd v1.5.2PL0 Copyright (c) Steve Scherf et al.
# Submitted via: fre:ac v1.0.17
# 
DISCID=980bd60c
DTITLE=Keri Hilson - No Boys Allowed
DYEAR=2010
DGENRE=R&B
TTITLE0=Buyou Featuring J. Cole
TTITLE1=Pretty Girl Rock
TTITLE2=The Way You Love Me Featuring Rick Ross
TTITLE3=Bahm Bahm ( Do It Once Again ) - I Want You
TTITLE4=One Night Stand Featuring Chris Brown
TTITLE5=Lose Control ( Let Me Down ) Featuring Nelly
TTITLE6=Toy Soldier
TTITLE7=Breaking Point
TTITLE8=Beautiful Mistake
TTITLE9=Gimme What I Want
TTITLE10=All the Boys
TTITLE11=Pretty Girl Rock ( Remix ) Featuring Kanye West
EXTD=
EXTT0=
EXTT1=
EXTT2=
EXTT3=
EXTT4=
EXTT5=
EXTT6=
EXTT7=
EXTT8=
EXTT9=
EXTT10=
EXTT11=
PLAYORDER=
